<?xml version="1.0" encoding="utf-8"?>
<!-- Generator: Adobe Illustrator 23.0.6, SVG Export Plug-In . SVG Version: 6.00 Build 0)  -->
<svg version="1.1" id="Layer_1" xmlns="http://www.w3.org/2000/svg" xmlns:xlink="http://www.w3.org/1999/xlink" x="0px" y="0px"
	 viewBox="0 0 88.13 62.84" style="enable-background:new 0 0 88.13 62.84;" xml:space="preserve">
<style type="text/css">
	.st0{fill:#B53E39;}
</style>
<g>
	<path class="st0" d="M64.27,0h-9.05L53,2.78L13.67,51.79C9.38,45.81,7.06,38.64,7.06,31.2c0-7.66,2.46-15.03,6.99-21.11
		l12.34,11.25l4.43-5.52L13.45,0l-2.38,2.61C3.93,10.44,0,20.59,0,31.2C0,41.8,3.93,51.96,11.08,59.79l2.78,3.05l34.64-43.17v0
		L64.27,0z"/>
	<path class="st0" d="M23.86,62.84h9.05l2.23-2.78l39.33-49.02c4.29,5.98,6.61,13.15,6.61,20.59c0,7.66-2.46,15.03-6.99,21.11
		L61.74,41.5l-4.43,5.52l17.36,15.82l2.38-2.61c7.14-7.83,11.08-17.99,11.08-28.59c0-10.61-3.93-20.76-11.08-28.59L74.27,0
		L39.64,43.17v0L23.86,62.84z"/>
</g>
</svg>
