<svg width="165" height="87" viewBox="0 0 165 87" fill="none" xmlns="http://www.w3.org/2000/svg">
<path d="M94.0297 0H88.8797L87.6097 1.58L65.2397 29.46C62.7997 26.06 61.4797 21.98 61.4797 17.74C61.4797 13.38 62.8797 9.19 65.4497 5.73L72.4697 12.13L74.9897 9L65.1197 0L63.7697 1.48C59.7097 5.94 57.4697 11.71 57.4697 17.75C57.4697 23.78 59.7097 29.56 63.7697 34.01L65.3497 35.74L85.0497 11.18L94.0297 0Z" fill="#B53E39"/>
<path d="M72.0293 35.75H77.1793L78.4493 34.17L100.819 6.29C103.259 9.69 104.579 13.77 104.579 18.01C104.579 22.37 103.179 26.56 100.609 30.02L93.5893 23.62L91.0693 26.76L100.939 35.76L102.289 34.28C106.349 29.82 108.589 24.05 108.589 18.01C108.589 11.98 106.349 6.2 102.289 1.75L100.709 0L81.0093 24.56L72.0293 35.75Z" fill="#B53E39"/>
<path d="M46.3096 86.54V74.54H52.0696C53.9796 74.54 55.0696 75.31 55.5796 75.8C56.5696 76.77 56.7996 77.99 56.7996 78.95C56.7996 79.94 56.5796 81.07 55.6096 81.95C54.6596 82.81 53.5796 82.92 52.6596 82.92H50.5596V86.54H46.3096V86.54ZM50.5596 79.9H51.2996C51.5196 79.9 51.9696 79.88 52.2696 79.58C52.4296 79.44 52.5596 79.2 52.5596 78.84C52.5596 78.46 52.3996 78.23 52.2396 78.1C52.0396 77.94 51.6796 77.83 51.3596 77.83H50.5696V79.9H50.5596Z" fill="#B53E39"/>
<path d="M63.8799 86.54V74.54H68.2299V86.54H63.8799Z" fill="#B53E39"/>
<path d="M76.29 74.54H87.46L82.91 81.95C82.73 82.26 82.48 82.58 82.24 82.83L82.28 82.9L83.11 82.83H86.92V86.54H75.25L79.69 79.36C79.98 78.91 80.18 78.57 80.64 78.07L80.61 78C80.41 78.07 80.02 78.18 79.75 78.18H76.3V74.54H76.29Z" fill="#B53E39"/>
<path d="M94.55 74.54H105.72L101.17 81.95C100.99 82.26 100.74 82.58 100.5 82.83L100.54 82.9L101.37 82.83H105.18V86.54H93.5L97.94 79.36C98.23 78.91 98.43 78.57 98.89 78.07L98.86 78C98.66 78.07 98.27 78.18 98 78.18H94.55V74.54Z" fill="#B53E39"/>
<path d="M115.369 85.05L115.049 86.54H110.439L114.599 74.54H119.419L123.699 86.54H119.079L118.679 85.05H115.369ZM117.139 78.55H116.979C116.959 79.05 116.889 79.47 116.779 79.9L116.189 82.2H117.939L117.379 79.9C117.259 79.44 117.189 78.99 117.139 78.55Z" fill="#B53E39"/>
<path d="M8.98977 45.7899V58.7299C8.98977 60.3199 8.92977 61.9099 8.23977 63.2799C7.60977 64.5399 6.25977 66.1599 3.53977 66.1599C1.76977 66.1599 0.599766 65.5299 0.00976562 65.1399L1.50977 62.5599C1.89977 62.8899 2.52977 63.2799 3.60977 63.2799C4.11977 63.2799 5.10977 63.1899 5.61977 61.9299C5.79977 61.4799 5.94977 60.7599 5.94977 58.7199V45.7899H8.98977Z" fill="currentColor"/>
<path d="M28.2102 60.95H19.6702L17.4802 65.77H14.2002L24.1402 44.62L33.6002 65.77H30.3102L28.2102 60.95ZM26.9902 58.07L24.0202 51.3L20.9402 58.07H26.9902V58.07Z" fill="currentColor"/>
<path d="M52.8594 50.4599C50.6394 48.4499 48.5794 48.2399 47.4394 48.2399C43.0994 48.2399 40.1594 51.4499 40.1594 55.8499C40.1594 60.0699 43.2194 63.3399 47.4694 63.3399C49.8694 63.3399 51.7194 62.1099 52.8594 61.0299V64.6499C50.8494 65.8499 48.7594 66.1499 47.3794 66.1499C43.7594 66.1499 41.4794 64.4999 40.3094 63.3899C37.9694 61.1999 37.1094 58.6599 37.1094 55.8399C37.1094 52.1599 38.6394 49.6099 40.3094 48.0199C42.3794 46.0699 44.7694 45.4099 47.5294 45.4099C49.3594 45.4099 51.1194 45.7399 52.8594 46.8499V50.4599V50.4599Z" fill="currentColor"/>
<path d="M62.6899 53.7599L70.4199 45.7899H74.4299L65.4099 54.8399L74.4899 65.7699H70.4199L63.2899 56.8999L62.6899 57.4999V65.7699H59.6299V45.7899H62.6899V53.7599V53.7599Z" fill="currentColor"/>
<path d="M83.2299 53.7599L90.9599 45.7899H94.9699L85.9499 54.8399L95.0299 65.7699H90.9599L83.8299 56.8999L83.2299 57.4999V65.7699H80.1699V45.7899H83.2299V53.7599V53.7599Z" fill="currentColor"/>
<path d="M100.729 65.7699V44.4399L115.229 59.6299V45.7899H118.289V66.9999L103.789 51.8099V65.7699H100.729V65.7699Z" fill="currentColor"/>
<path d="M129.12 45.7899V65.7699H126.06V45.7899H129.12Z" fill="currentColor"/>
<path d="M146.909 48.6699H139.959V53.7299H146.669V56.6099H139.959V65.7799H136.899V45.7899H146.899V48.6699H146.909Z" fill="currentColor"/>
<path d="M164.4 48.6699H156.43V53.7299H164.16V56.6099H156.43V62.8999H164.4V65.7799H153.38V45.7899H164.4V48.6699Z" fill="currentColor"/>
</svg>
