<svg width="48" height="44" viewBox="0 0 48 44" fill="currentColor" xmlns="http://www.w3.org/2000/svg">
<path d="M24 0.666626C21.2152 0.666626 18.5445 1.77287 16.5754 3.742C14.6062 5.71114 13.5 8.38185 13.5 11.1666C13.5 15.8583 20.3583 24.4 22.9917 27.5C23.1153 27.6471 23.2696 27.7655 23.4438 27.8467C23.618 27.9279 23.8078 27.9699 24 27.9699C24.1922 27.9699 24.382 27.9279 24.5562 27.8467C24.7304 27.7655 24.8847 27.6471 25.0083 27.5C27.6333 24.4 34.5 15.8583 34.5 11.1666C34.5 8.38185 33.3938 5.71114 31.4246 3.742C29.4555 1.77287 26.7848 0.666626 24 0.666626ZM24 14.6666C23.0717 14.6666 22.1815 14.2979 21.5251 13.6415C20.8688 12.9851 20.5 12.0949 20.5 11.1666C20.5 10.2384 20.8688 9.34813 21.5251 8.69175C22.1815 8.03538 23.0717 7.66663 24 7.66663C24.9283 7.66663 25.8185 8.03538 26.4749 8.69175C27.1313 9.34813 27.5 10.2384 27.5 11.1666C27.5 12.0949 27.1313 12.9851 26.4749 13.6415C25.8185 14.2979 24.9283 14.6666 24 14.6666ZM1.675 18.6666C1.18187 18.8642 0.758976 19.2045 0.460545 19.644C0.162114 20.0835 0.00174508 20.6021 0 21.1333L0 42C0.000441438 42.2181 0.0543795 42.4327 0.157086 42.6251C0.259792 42.8175 0.40813 42.9818 0.589095 43.1036C0.77006 43.2253 0.978127 43.3008 1.19505 43.3234C1.41198 43.346 1.63115 43.3151 1.83333 43.2333L13.3333 38V18.5833C12.6 17.25 12 15.95 11.5583 14.7083L1.68333 18.6583L1.675 18.6666ZM24 30.6333C22.8333 30.6333 21.7167 30.1166 20.9583 29.2166C19.2087 27.1659 17.5542 25.0359 16 22.8333V38L32 43.3333V22.8333C30.4167 25.0833 28.6833 27.2916 27.0417 29.225C26.6682 29.6681 26.2026 30.0245 25.6773 30.2692C25.1519 30.5139 24.5795 30.641 24 30.6416V30.6333ZM46.1667 14.0916L34.6667 19.3333V43.3333L46.325 38.6666C46.8195 38.4685 47.2432 38.1269 47.5418 37.6858C47.8403 37.2447 47.9999 36.7243 48 36.1916V15.3333C47.9996 15.1152 47.9456 14.9005 47.8429 14.7081C47.7402 14.5157 47.5919 14.3514 47.4109 14.2297C47.2299 14.108 47.0219 14.0325 46.8049 14.0098C46.588 13.9872 46.3689 14.0182 46.1667 14.1V14.0916Z" fill="currentColor"/>
</svg>
